<?xml version="1.0" encoding="utf-8"?>
<!-- Generator: Adobe Illustrator 21.1.0, SVG Export Plug-In . SVG Version: 6.00 Build 0)  -->
<svg version="1.1" id="Livello_1" xmlns="http://www.w3.org/2000/svg" xmlns:xlink="http://www.w3.org/1999/xlink" x="0px" y="0px"
	 viewBox="0 0 164 112.7" style="enable-background:new 0 0 164 112.7;" xml:space="preserve">
<style type="text/css">
	.st0{fill:#CCCCCC;}
</style>
<g>
	<path class="st0" d="M156.9,55.2c5.3-6.9,0.7-13.9-3.4-20.1c-4.2-6.5-10-11.9-16.3-16.4C123.8,9.1,107.5,3,91,2.1
		C60.1,0.3,26.5,16.3,7.7,40.9c-2.5,3.3-6.2,7.6-5.6,12c0.5,4,4.6,7.7,7.1,10.6c2.9,3.2,6.2,6.2,7.5,10.4c1.2,4,0.3,8.4,0,12.5
		c-0.1,2.8-0.9,6.4,2.5,6.6c2.4,0.1,5.3-1.8,7.4-2.7c8.7-3.8,17.5-4.3,26.6-1.2l0.2,0.1c5.6,2,10.1,1.8,14.1,7
		c2.5,3.2,3.5,12,7.3,13.5c4.8,2,7.6-8,10.3-10.7c4.8-4.8,12-5.2,18.2-7.2c6.9-2.2,14.2-6.7,21.6-5.9c3.6,0.4,7,2.2,10.4,3.4
		c2.2,0.7,7.6,3.2,10,2.2c6.9-2.8-3-12.1-2.5-16.6c0.4-3.5,3.9-6.4,5.9-9C151.6,62.3,154.2,58.7,156.9,55.2
		C159,52.4,155.9,56.5,156.9,55.2z M59.3,19.4c8.7-6.9,20.5-7.1,31.1-6.5c7.6,0.4,25.7,6.7,16.7,17.1c-6.8,7.9-22,11-31.8,9.4
		C67.3,38.1,47.8,28.6,59.3,19.4C64.2,15.5,54.7,23.1,59.3,19.4z M140.4,54.2l-0.7,0.7C123,72.3,103.2,79.4,79.4,80.1l0,0l0,0
		C62.8,79.7,47,76,33.6,65.8c-5.7-4.4-14.4-9.9-11.5-18.3c2.1-6,11.2-14.2,18.1-11.8c3.4,1.2,5.7,4.2,8.4,6.4
		c2.7,2.3,5.7,4.3,8.9,5.9c6.3,3.2,13.4,4.6,20.4,4.5c7.7-0.1,15.8-1.8,22.9-4.7c7.2-2.9,12.5-7.9,17-14c4.6-6.3,8.8-4.6,14.7-0.5
		C138.2,37.3,147.1,47.2,140.4,54.2z"/>
</g>
</svg>
